<svg width="64" height="64" viewBox="0 0 64 64" fill="none" xmlns="http://www.w3.org/2000/svg">
  <!-- Fundal -->
  <rect width="64" height="64" rx="8" fill="#F0F4F8"/>

  <!-- Soare mai mic, poziționat în dreapta sus, cu distanță de hotel -->
  <circle cx="54" cy="14" r="5" fill="#F39C12" />
  <line x1="54" y1="6" x2="54" y2="2" stroke="#D35400" stroke-width="1.2" stroke-linecap="round"/>
  <line x1="54" y1="22" x2="54" y2="26" stroke="#D35400" stroke-width="1.2" stroke-linecap="round"/>
  <line x1="48" y1="14" x2="44" y2="14" stroke="#D35400" stroke-width="1.2" stroke-linecap="round"/>
  <line x1="60" y1="14" x2="64" y2="14" stroke="#D35400" stroke-width="1.2" stroke-linecap="round"/>
  <line x1="50.5" y1="8.5" x2="48.5" y2="6.5" stroke="#D35400" stroke-width="1.2" stroke-linecap="round"/>
  <line x1="57.5" y1="19.5" x2="59.5" y2="21.5" stroke="#D35400" stroke-width="1.2" stroke-linecap="round"/>
  <line x1="50.5" y1="19.5" x2="48.5" y2="21.5" stroke="#D35400" stroke-width="1.2" stroke-linecap="round"/>
  <line x1="57.5" y1="8.5" x2="59.5" y2="6.5" stroke="#D35400" stroke-width="1.2" stroke-linecap="round"/>

  <!-- Corp clădire hotel centrat, cu spațiu față de soare -->
  <rect x="18" y="14" width="28" height="36" fill="#2C3E50" rx="4" />
  
  <!-- Parter centrat -->
  <rect x="18" y="44" width="28" height="12" fill="#34495E" rx="4" />

  <!-- Ușa parter centrată -->
  <rect x="29" y="50" width="6" height="6" fill="#E67E22" rx="1.5" />

  <!-- Ferestre (12) - 4 rânduri x 3 coloane, toate în interior -->
  <g fill="#ECF0F1" stroke="#2980B9" stroke-width="1" rx="1" ry="1">
    <rect x="21.5" y="18" width="6" height="6" rx="1" />
    <rect x="29.5" y="18" width="6" height="6" rx="1" />
    <rect x="37.5" y="18" width="6" height="6" rx="1" />
    <rect x="21.5" y="26" width="6" height="6" rx="1" />
    <rect x="29.5" y="26" width="6" height="6" rx="1" />
    <rect x="37.5" y="26" width="6" height="6" rx="1" />
    <rect x="21.5" y="34" width="6" height="6" rx="1" />
    <rect x="29.5" y="34" width="6" height="6" rx="1" />
    <rect x="37.5" y="34" width="6" height="6" rx="1" />
    <rect x="21.5" y="42" width="6" height="6" rx="1" />
    <rect x="29.5" y="42" width="6" height="6" rx="1" />
    <rect x="37.5" y="42" width="6" height="6" rx="1" />
  </g>
</svg>