<svg width="64" height="64" viewBox="0 0 64 64" fill="none" xmlns="http://www.w3.org/2000/svg">
  <rect width="64" height="64" rx="8" fill="#EAF7FF"/>

  <!-- Far pe mal -->
  <rect x="6" y="20" width="4" height="20" fill="#FF7043"/>
  <polygon points="8,14 5,20 11,20" fill="#FFAB91"/>
  <path d="M8 14L3 10M8 14L13 10" stroke="#FFCCBC" stroke-width="1.2" stroke-linecap="round"/>

  <!-- Corpul navei -->
  <path d="M16 38L22 28H50L56 38V42H16V38Z" fill="#1565C0" stroke="#0D47A1" stroke-width="2"/>

  <!-- Containere -->
  <rect x="24" y="22" width="6" height="6" fill="#FFC107"/>
  <rect x="30" y="22" width="6" height="6" fill="#4CAF50"/>
  <rect x="36" y="22" width="6" height="6" fill="#29B6F6"/>
  <rect x="27" y="16" width="6" height="6" fill="#FF7043"/>
  <rect x="33" y="16" width="6" height="6" fill="#AB47BC"/>

  <!-- Podul de comandă -->
  <rect x="42" y="18" width="6" height="10" fill="#90CAF9"/>

  <!-- Valuri -->
  <path d="M14 48C16 50 20 50 22 48C24 46 28 46 30 48C32 50 36 50 38 48C40 46 44 46 46 48C48 50 52 50 54 48" 
        stroke="#81D4FA" stroke-width="2" fill="none" stroke-linecap="round"/>
</svg>