<svg width="512" height="512" viewBox="0 0 512 512" fill="none" xmlns="http://www.w3.org/2000/svg">
  <rect width="512" height="512" fill="white" fill-opacity="0"/>
  <g>
    <rect x="50" y="220" width="400" height="100" rx="10" fill="#3B82F6" stroke="black" stroke-width="8"/>
    <rect x="90" y="190" width="140" height="70" rx="5" fill="#1F2937" stroke="black" stroke-width="6"/>
    <rect x="240" y="190" width="100" height="70" rx="5" fill="#1F2937" stroke="black" stroke-width="6"/>
    <rect x="240" y="220" width="100" height="100" fill="white" stroke="black" stroke-width="8"/>
    <circle cx="120" cy="320" r="30" fill="#1F2937" stroke="black" stroke-width="8"/>
    <circle cx="120" cy="320" r="10" fill="white"/>
    <circle cx="370" cy="320" r="30" fill="#1F2937" stroke="black" stroke-width="8"/>
    <circle cx="370" cy="320" r="10" fill="white"/>
    <rect x="230" y="170" width="50" height="20" rx="5" fill="#F87171" stroke="black" stroke-width="4"/>
   
    <!-- Stea recentrată în mijlocul ușii (x=290, y=270) -->
    <polygon points="290,255 285,270 270,270 282,280 277,295 290,287 303,295 298,280 310,270 295,270"
             fill="#FACC15" stroke="black" stroke-width="4"/>
   
    <rect x="440" y="250" width="30" height="30" rx="5" fill="#FBBF24" stroke="black" stroke-width="4"/>
  </g>
</svg>